<?xml version="1.0" encoding="UTF-8" standalone="no"?>
<svg
   id="svg898"
   viewBox="0 0 64 64"
   version="1.1"
   sodipodi:docname="logo.svg"
   inkscape:version="1.1 (c4e8f9ed74, 2021-05-24)"
   xmlns:inkscape="http://www.inkscape.org/namespaces/inkscape"
   xmlns:sodipodi="http://sodipodi.sourceforge.net/DTD/sodipodi-0.dtd"
   xmlns:xlink="http://www.w3.org/1999/xlink"
   xmlns="http://www.w3.org/2000/svg"
   xmlns:svg="http://www.w3.org/2000/svg">
  <sodipodi:namedview
     id="namedview11"
     pagecolor="#505050"
     bordercolor="#eeeeee"
     borderopacity="1"
     inkscape:pageshadow="0"
     inkscape:pageopacity="0"
     inkscape:pagecheckerboard="0"
     showgrid="false"
     inkscape:zoom="2.0080728"
     inkscape:cx="8.9638186"
     inkscape:cy="126.48944"
     inkscape:window-width="958"
     inkscape:window-height="1059"
     inkscape:window-x="0"
     inkscape:window-y="19"
     inkscape:window-maximized="1"
     inkscape:current-layer="svg898" />
  <defs
     id="defs4">
    <linearGradient
       inkscape:collect="always"
       id="linearGradient1024">
      <stop
         style="stop-color:#ff2aaa;stop-opacity:1;"
         offset="0"
         id="stop1020" />
      <stop
         style="stop-color:#ffc608;stop-opacity:1"
         offset="1"
         id="stop1022" />
    </linearGradient>
    <linearGradient
       inkscape:collect="always"
       id="linearGradient856">
      <stop
         style="stop-color:#ff2aaa;stop-opacity:1;"
         offset="0"
         id="stop852" />
      <stop
         style="stop-color:#ffc608;stop-opacity:1"
         offset="1"
         id="stop854" />
    </linearGradient>
    <style
       id="style2">.cls-1{fill:#231f20;}</style>
    <linearGradient
       inkscape:collect="always"
       xlink:href="#linearGradient856"
       id="linearGradient858"
       x1="6.7499996"
       y1="41.7"
       x2="57.25"
       y2="41.7"
       gradientUnits="userSpaceOnUse" />
    <linearGradient
       inkscape:collect="always"
       xlink:href="#linearGradient1024"
       id="linearGradient860"
       x1="0.0054618357"
       y1="32"
       x2="63.999479"
       y2="32"
       gradientUnits="userSpaceOnUse" />
  </defs>
  <path
     class="cls-1"
     d="M48.56,26.27l-.05,15.62,0,6.39-4.62-4.41L32.05,32.62,20.21,43.88l-4.64,4.4V41.89l0-15.62H7.37a25.65,25.65,0,0,0-.62,5.61,25.25,25.25,0,0,0,50.5,0,25.63,25.63,0,0,0-.62-5.6Z"
     id="path6"
     style="fill:url(#linearGradient858);fill-opacity:1" />
  <path
     class="cls-1"
     d="M61.48,19.54a32,32,0,1,0,0,24.92A32.07,32.07,0,0,0,61.48,19.54ZM32,4A28,28,0,0,1,57.65,20.77H43.08v2.74l0,12-9.09-8.65L32.05,25l-1.9,1.8-9.1,8.66,0-12V20.77H6.35A28,28,0,0,1,32,4Zm0,55.87A28,28,0,0,1,5.26,23.52h13l0,18.36L32.05,28.83,45.76,41.88l.06-18.36H58.73A28,28,0,0,1,32,59.87Z"
     id="path8"
     style="fill:url(#linearGradient860);fill-opacity:1" />
</svg>
